<?xml version="1.0" encoding="UTF-8" standalone="no"?>
<!DOCTYPE svg PUBLIC "-//W3C//DTD SVG 1.1//EN" "http://www.w3.org/Graphics/SVG/1.1/DTD/svg11.dtd">
<svg version="1.1" xmlns="http://www.w3.org/2000/svg" xmlns:xlink="http://www.w3.org/1999/xlink" preserveAspectRatio="xMidYMid meet" viewBox="0 0 640 640" width="640" height="640"><defs><path d="M555.06 336.75C555.06 358.36 537.53 375.9 515.94 375.9C494.35 375.9 476.82 358.36 476.82 336.75C476.82 315.14 494.35 297.6 515.94 297.6C537.53 297.6 555.06 315.14 555.06 336.75Z" id="ck0EmgPFf"></path><path d="M554.42 472C554.42 499.6 531.38 522 503 522C474.62 522 451.58 499.6 451.58 472C451.58 444.4 474.62 422 503 422C531.38 422 554.42 444.4 554.42 472Z" id="b5G0PVgMkC"></path><path d="M553 209.94C553 225.37 539.96 237.89 523.9 237.89C507.84 237.89 494.79 225.37 494.79 209.94C494.79 194.52 507.84 182 523.9 182C539.96 182 553 194.52 553 209.94Z" id="bAhjecmE"></path><path d="M465.39 269.94C465.39 285.37 452.35 297.89 436.29 297.89C420.22 297.89 407.18 285.37 407.18 269.94C407.18 254.52 420.22 242 436.29 242C452.35 242 465.39 254.52 465.39 269.94Z" id="ancjoJN0G"></path><path d="M237.66 498.31C237.66 513.73 224.62 526.25 208.56 526.25C192.49 526.25 179.45 513.73 179.45 498.31C179.45 482.89 192.49 470.37 208.56 470.37C224.62 470.37 237.66 482.89 237.66 498.31Z" id="j1LgH4fUUF"></path><path d="M311.21 409.94C311.21 425.37 298.16 437.89 282.1 437.89C266.04 437.89 253 425.37 253 409.94C253 394.52 266.04 382 282.1 382C298.16 382 311.21 394.52 311.21 409.94Z" id="adB9FUz0s"></path><path d="M389.01 336.33C389.01 351.75 375.97 364.27 359.9 364.27C343.84 364.27 330.8 351.75 330.8 336.33C330.8 320.9 343.84 308.38 359.9 308.38C375.97 308.38 389.01 320.9 389.01 336.33Z" id="aamKryQ2LS"></path><path d="M384.78 484.27C384.78 505.88 367.25 523.42 345.66 523.42C324.07 523.42 306.55 505.88 306.55 484.27C306.55 462.66 324.07 445.12 345.66 445.12C367.25 445.12 384.78 462.66 384.78 484.27Z" id="a2s9ULwsR"></path><path d="M461.24 408.52C461.24 430.13 443.71 447.67 422.12 447.67C400.53 447.67 383 430.13 383 408.52C383 386.92 400.53 369.38 422.12 369.38C443.71 369.38 461.24 386.92 461.24 408.52Z" id="b5VzkEBg3g"></path><path d="M165.58 440.58C165.58 449.74 157.62 457.18 147.82 457.18C138.02 457.18 130.07 449.74 130.07 440.58C130.07 431.42 138.02 423.99 147.82 423.99C157.62 423.99 165.58 431.42 165.58 440.58Z" id="c4Ul3tOMA"></path><path d="M478.51 152C478.51 161.16 470.55 168.6 460.75 168.6C450.96 168.6 443 161.16 443 152C443 142.84 450.96 135.4 460.75 135.4C470.55 135.4 478.51 142.84 478.51 152Z" id="a4DTeKqLe"></path><path d="M410.75 208.6C410.75 217.75 402.8 225.19 393 225.19C383.2 225.19 375.25 217.75 375.25 208.6C375.25 199.44 383.2 192 393 192C402.8 192 410.75 199.44 410.75 208.6Z" id="a4ue3GumMV"></path><path d="M343 258.6C343 267.75 335.04 275.19 325.25 275.19C315.45 275.19 307.49 267.75 307.49 258.6C307.49 249.44 315.45 242 325.25 242C335.04 242 343 249.44 343 258.6Z" id="eGGVMCCa"></path><path d="M278.51 315.4C278.51 324.56 270.55 332 260.75 332C250.96 332 243 324.56 243 315.4C243 306.25 250.96 298.81 260.75 298.81C270.55 298.81 278.51 306.25 278.51 315.4Z" id="ciHkNqV9t"></path><path d="M218.51 368.6C218.51 377.75 210.55 385.19 200.75 385.19C190.96 385.19 183 377.75 183 368.6C183 359.44 190.96 352 200.75 352C210.55 352 218.51 359.44 218.51 368.6Z" id="arKgjN0dQ"></path><path d="M550.75 102C550.75 111.16 542.8 118.6 533 118.6C523.2 118.6 515.25 111.16 515.25 102C515.25 92.84 523.2 85.4 533 85.4C542.8 85.4 550.75 92.84 550.75 102Z" id="eSMBOCHC"></path><path d="M96.71 509.66C96.71 518.82 88.76 526.25 78.96 526.25C69.16 526.25 61.2 518.82 61.2 509.66C61.2 500.5 69.16 493.06 78.96 493.06C88.76 493.06 96.71 500.5 96.71 509.66Z" id="l1vIxfqJJQ"></path><path d="M189.03 281.57C189.03 287.99 183.77 293.2 177.3 293.2C170.83 293.2 165.58 287.99 165.58 281.57C165.58 275.15 170.83 269.94 177.3 269.94C183.77 269.94 189.03 275.15 189.03 281.57Z" id="b3VzUOQVGI"></path><path d="M245.51 236.82C245.51 243.24 240.25 248.45 233.78 248.45C227.31 248.45 222.06 243.24 222.06 236.82C222.06 230.4 227.31 225.19 233.78 225.19C240.25 225.19 245.51 230.4 245.51 236.82Z" id="a7ysahHJd"></path><path d="M305.56 192C305.56 198.42 300.3 203.63 293.83 203.63C287.36 203.63 282.1 198.42 282.1 192C282.1 185.58 287.36 180.37 293.83 180.37C300.3 180.37 305.56 185.58 305.56 192Z" id="atcVDBMuD"></path><path d="M359.9 148.88C359.9 155.3 354.65 160.51 348.18 160.51C341.71 160.51 336.45 155.3 336.45 148.88C336.45 142.46 341.71 137.25 348.18 137.25C354.65 137.25 359.9 142.46 359.9 148.88Z" id="b2WyW9qjxa"></path><path d="M412.46 97.04C412.46 103.45 407.21 108.67 400.73 108.67C394.26 108.67 389.01 103.45 389.01 97.04C389.01 90.62 394.26 85.4 400.73 85.4C407.21 85.4 412.46 90.62 412.46 97.04Z" id="d2O0mzRQMp"></path><path d="M76.97 91.22C76.97 94.43 74.34 97.04 71.11 97.04C67.87 97.04 65.25 94.43 65.25 91.22C65.25 88.01 67.87 85.4 71.11 85.4C74.34 85.4 76.97 88.01 76.97 91.22Z" id="bGbY14Ngq"></path><path d="M88.7 375.9C88.7 382.32 83.44 387.53 76.97 387.53C70.5 387.53 65.25 382.32 65.25 375.9C65.25 369.48 70.5 364.27 76.97 364.27C83.44 364.27 88.7 369.48 88.7 375.9Z" id="d1otTmtNP0"></path><path d="M141.11 334.55C141.11 340.97 135.85 346.18 129.38 346.18C122.91 346.18 117.66 340.97 117.66 334.55C117.66 328.13 122.91 322.92 129.38 322.92C135.85 322.92 141.11 328.13 141.11 334.55Z" id="f1fnfYeE7S"></path><path d="M76.97 146.18C76.97 149.39 74.34 152 71.11 152C67.87 152 65.25 149.39 65.25 146.18C65.25 142.97 67.87 140.37 71.11 140.37C74.34 140.37 76.97 142.97 76.97 146.18Z" id="d4EUOxYzLO"></path><path d="M76.97 199.45C76.97 202.66 74.34 205.26 71.11 205.26C67.87 205.26 65.25 202.66 65.25 199.45C65.25 196.24 67.87 193.63 71.11 193.63C74.34 193.63 76.97 196.24 76.97 199.45Z" id="j4G0l0bpgD"></path><path d="M72.93 264.13C72.93 267.34 70.3 269.94 67.07 269.94C63.83 269.94 61.2 267.34 61.2 264.13C61.2 260.92 63.83 258.31 67.07 258.31C70.3 258.31 72.93 260.92 72.93 264.13Z" id="c2GrFLx8fw"></path><path d="M141.11 91.22C141.11 94.43 138.48 97.04 135.25 97.04C132.01 97.04 129.38 94.43 129.38 91.22C129.38 88.01 132.01 85.4 135.25 85.4C138.48 85.4 141.11 88.01 141.11 91.22Z" id="chvl0wUva"></path><path d="M141.11 144.62C141.11 147.83 138.48 150.44 135.25 150.44C132.01 150.44 129.38 147.83 129.38 144.62C129.38 141.41 132.01 138.81 135.25 138.81C138.48 138.81 141.11 141.41 141.11 144.62Z" id="a7ycxMYgP"></path><path d="M141.11 199.45C141.11 202.66 138.48 205.26 135.25 205.26C132.01 205.26 129.38 202.66 129.38 199.45C129.38 196.24 132.01 193.63 135.25 193.63C138.48 193.63 141.11 196.24 141.11 199.45Z" id="e3BhHBOyek"></path><path d="M200.75 199.45C200.75 202.66 198.13 205.26 194.89 205.26C191.66 205.26 189.03 202.66 189.03 199.45C189.03 196.24 191.66 193.63 194.89 193.63C198.13 193.63 200.75 196.24 200.75 199.45Z" id="a1abwGx22G"></path><path d="M254.73 91.22C254.73 94.43 252.1 97.04 248.86 97.04C245.63 97.04 243 94.43 243 91.22C243 88.01 245.63 85.4 248.86 85.4C252.1 85.4 254.73 88.01 254.73 91.22Z" id="bGxIn7AnA"></path><path d="M199.03 91.22C199.03 94.43 196.4 97.04 193.17 97.04C189.93 97.04 187.3 94.43 187.3 91.22C187.3 88.01 189.93 85.4 193.17 85.4C196.4 85.4 199.03 88.01 199.03 91.22Z" id="b6O2Xpx0Yi"></path><path d="M197.09 146.18C197.09 149.39 194.47 152 191.23 152C187.99 152 185.37 149.39 185.37 146.18C185.37 142.97 187.99 140.37 191.23 140.37C194.47 140.37 197.09 142.97 197.09 146.18Z" id="a3r8CPqNO3"></path><path d="M251.37 146.18C251.37 149.39 248.75 152 245.51 152C242.27 152 239.65 149.39 239.65 146.18C239.65 142.97 242.27 140.37 245.51 140.37C248.75 140.37 251.37 142.97 251.37 146.18Z" id="f9Ry5BQIt"></path><path d="M325.25 93.84C325.25 97.05 322.62 99.66 319.38 99.66C316.15 99.66 313.52 97.05 313.52 93.84C313.52 90.63 316.15 88.03 319.38 88.03C322.62 88.03 325.25 90.63 325.25 93.84Z" id="b1q6UnWFlF"></path><path d="M141.11 252.5C141.11 255.71 138.48 258.31 135.25 258.31C132.01 258.31 129.38 255.71 129.38 252.5C129.38 249.29 132.01 246.68 135.25 246.68C138.48 246.68 141.11 249.29 141.11 252.5Z" id="dxd9cCmrs"></path></defs><g><g><g><use xlink:href="#ck0EmgPFf" opacity="1" fill="#878787" fill-opacity="0.22"></use></g><g><use xlink:href="#b5G0PVgMkC" opacity="1" fill="#878787" fill-opacity="0.22"></use></g><g><use xlink:href="#bAhjecmE" opacity="1" fill="#878787" fill-opacity="0.22"></use></g><g><use xlink:href="#ancjoJN0G" opacity="1" fill="#878787" fill-opacity="0.22"></use></g><g><use xlink:href="#j1LgH4fUUF" opacity="1" fill="#878787" fill-opacity="0.22"></use></g><g><use xlink:href="#adB9FUz0s" opacity="1" fill="#878787" fill-opacity="0.22"></use></g><g><use xlink:href="#aamKryQ2LS" opacity="1" fill="#878787" fill-opacity="0.22"></use></g><g><use xlink:href="#a2s9ULwsR" opacity="1" fill="#878787" fill-opacity="0.22"></use></g><g><use xlink:href="#b5VzkEBg3g" opacity="1" fill="#878787" fill-opacity="0.22"></use></g><g><use xlink:href="#c4Ul3tOMA" opacity="1" fill="#878787" fill-opacity="0.22"></use></g><g><use xlink:href="#a4DTeKqLe" opacity="1" fill="#878787" fill-opacity="0.22"></use></g><g><use xlink:href="#a4ue3GumMV" opacity="1" fill="#878787" fill-opacity="0.22"></use></g><g><use xlink:href="#eGGVMCCa" opacity="1" fill="#878787" fill-opacity="0.22"></use></g><g><use xlink:href="#ciHkNqV9t" opacity="1" fill="#878787" fill-opacity="0.22"></use></g><g><use xlink:href="#arKgjN0dQ" opacity="1" fill="#878787" fill-opacity="0.22"></use></g><g><use xlink:href="#eSMBOCHC" opacity="1" fill="#878787" fill-opacity="0.22"></use></g><g><use xlink:href="#l1vIxfqJJQ" opacity="1" fill="#878787" fill-opacity="0.22"></use></g><g><use xlink:href="#b3VzUOQVGI" opacity="1" fill="#878787" fill-opacity="0.22"></use></g><g><use xlink:href="#a7ysahHJd" opacity="1" fill="#878787" fill-opacity="0.22"></use></g><g><use xlink:href="#atcVDBMuD" opacity="1" fill="#878787" fill-opacity="0.22"></use></g><g><use xlink:href="#b2WyW9qjxa" opacity="1" fill="#878787" fill-opacity="0.22"></use></g><g><use xlink:href="#d2O0mzRQMp" opacity="1" fill="#878787" fill-opacity="0.22"></use></g><g><use xlink:href="#bGbY14Ngq" opacity="1" fill="#878787" fill-opacity="0.22"></use></g><g><use xlink:href="#d1otTmtNP0" opacity="1" fill="#878787" fill-opacity="0.22"></use></g><g><use xlink:href="#f1fnfYeE7S" opacity="1" fill="#878787" fill-opacity="0.22"></use></g><g><use xlink:href="#d4EUOxYzLO" opacity="1" fill="#878787" fill-opacity="0.22"></use></g><g><use xlink:href="#j4G0l0bpgD" opacity="1" fill="#878787" fill-opacity="0.22"></use></g><g><use xlink:href="#c2GrFLx8fw" opacity="1" fill="#878787" fill-opacity="0.22"></use></g><g><use xlink:href="#chvl0wUva" opacity="1" fill="#878787" fill-opacity="0.22"></use></g><g><use xlink:href="#a7ycxMYgP" opacity="1" fill="#878787" fill-opacity="0.22"></use></g><g><use xlink:href="#e3BhHBOyek" opacity="1" fill="#878787" fill-opacity="0.22"></use></g><g><use xlink:href="#a1abwGx22G" opacity="1" fill="#878787" fill-opacity="0.22"></use></g><g><use xlink:href="#bGxIn7AnA" opacity="1" fill="#878787" fill-opacity="0.22"></use></g><g><use xlink:href="#b6O2Xpx0Yi" opacity="1" fill="#878787" fill-opacity="0.22"></use></g><g><use xlink:href="#a3r8CPqNO3" opacity="1" fill="#878787" fill-opacity="0.22"></use></g><g><use xlink:href="#f9Ry5BQIt" opacity="1" fill="#878787" fill-opacity="0.22"></use></g><g><use xlink:href="#b1q6UnWFlF" opacity="1" fill="#878787" fill-opacity="0.22"></use></g><g><use xlink:href="#dxd9cCmrs" opacity="1" fill="#878787" fill-opacity="0.22"></use></g></g></g></svg>